<svg version="1.1" xmlns="http://www.w3.org/2000/svg" style="display: block;" viewBox="108 58.667 1829.333 1041.333" width="1829.333" height="1041.333" preserveAspectRatio="none">
<defs>
	<linearGradient id="svgi_r_2l___Gradient1" gradientUnits="userSpaceOnUse" x1="1785.38" y1="557.458" x2="295.813" y2="462.357">
		<stop class="stop0" offset="0" stop-opacity="1" stop-color="rgb(117,123,134)"></stop>
		<stop class="stop1" offset="1" stop-opacity="1" stop-color="rgb(153,155,161)"></stop>
	</linearGradient>
	<linearGradient id="svgi_r_2l___Gradient2" gradientUnits="userSpaceOnUse" x1="1164.14" y1="871.641" x2="1172.17" y2="892.555">
		<stop class="stop0" offset="0" stop-opacity="1" stop-color="rgb(108,116,127)"></stop>
		<stop class="stop1" offset="1" stop-opacity="1" stop-color="rgb(149,149,154)"></stop>
	</linearGradient>
	<linearGradient id="svgi_r_2l___Gradient3" gradientUnits="userSpaceOnUse" x1="900.658" y1="878.941" x2="893.863" y2="897.99">
		<stop class="stop0" offset="0" stop-opacity="1" stop-color="rgb(108,115,126)"></stop>
		<stop class="stop1" offset="1" stop-opacity="1" stop-color="rgb(147,150,157)"></stop>
	</linearGradient>
	<linearGradient id="svgi_r_2l___Gradient4" gradientUnits="userSpaceOnUse" x1="658.103" y1="90.6417" x2="646.065" y2="186.993">
		<stop class="stop0" offset="0" stop-opacity="1" stop-color="rgb(95,105,124)"></stop>
		<stop class="stop1" offset="1" stop-opacity="1" stop-color="rgb(119,127,138)"></stop>
	</linearGradient>
</defs>
<path transform="translate(0,0)" fill="rgb(252,252,253)" d="M 1094.94 177.344 C 1104.51 168.904 1125.5 156.987 1137.6 150.641 C 1226.2 104.187 1333.03 88.7782 1431.95 95.0516 C 1521.9 101.211 1610.38 121.04 1694.36 153.855 C 1699.51 161.88 1733.53 203.29 1740.06 208.645 C 1744.85 208.705 1752.07 208.758 1756.63 208.45 C 1812.25 204.699 1805.75 222.345 1811.82 267.995 L 1824.45 364.441 C 1839.69 476.12 1854.11 587.91 1867.7 699.801 L 1891.18 886.417 C 1893.35 903.832 1895.65 921.232 1898.07 938.616 C 1899.43 948.136 1901.38 958.534 1902.06 968.015 C 1902.99 981.036 1891.4 995.265 1877.88 995.674 C 1854.64 996.378 1831.16 996.115 1807.83 996.117 L 1671.5 996.143 L 1229.76 996.106 C 1229.72 1009.41 1229.77 1022.72 1229.91 1036.02 C 1230.03 1042.78 1231.97 1060.5 1227.64 1065.1 C 1220.8 1065.53 1187.69 1035.14 1180.8 1029.09 C 1174.44 1034.61 1136.81 1068.1 1130.95 1065.1 C 1130.04 1060.4 1130.1 1018.26 1129.97 1011.08 C 1123.37 1015.3 1117 1019.96 1110.07 1023.62 C 1047.43 1056.66 947.967 1053.37 900.043 996.078 C 835.498 995.291 769.204 996.223 704.468 996.308 L 373.072 996.125 L 244.015 996.194 C 219.908 996.221 195.993 996.393 171.747 995.918 C 156.917 995.627 141.619 983.075 142.813 967.259 C 143.523 957.839 145.659 947.284 147.048 937.822 C 149.524 920.437 151.899 903.039 154.174 885.627 C 161.576 824.862 169.379 764.148 177.583 703.486 C 190.439 602.248 203.832 501.079 217.761 399.983 C 225.027 345.331 231.673 290.728 239.715 236.098 C 243.117 212.994 251.117 208.855 274.658 208.618 C 285.095 208.513 295.699 208.671 306.182 209.202 C 315.287 202.249 348.91 155.181 353.702 153.261 C 386.46 138.55 430.552 126.864 465.449 118.262 C 617.564 80.7638 805.674 78.7044 941.101 169.158 C 966.156 187.674 988.996 207.076 1009.02 231.292 C 1012.78 235.842 1019.13 247.349 1023.5 247.6 L 1025.93 245.197 C 1040.37 223.102 1072.83 191.783 1094.94 177.344 z"></path>
<path transform="translate(0,0)" fill="rgb(252,252,253)" d="M 353.702 153.261 C 386.46 138.55 430.552 126.864 465.449 118.262 C 617.564 80.7638 805.674 78.7044 941.101 169.158 C 966.156 187.674 988.996 207.076 1009.02 231.292 C 1012.78 235.842 1019.13 247.349 1023.5 247.6 L 1025.93 245.197 C 1026.33 251.12 1026.17 247.636 1029.76 252.039 L 1026.19 257.085 L 1026.07 715.846 L 1026.04 864.558 C 1026.04 883.792 1024.86 920.057 1026.31 937.936 C 1025.08 939.54 1024.28 940.328 1022.85 941.761 C 1019.78 941.371 1019.49 939.804 1016.94 936.793 C 994.761 909.908 965.236 888.127 934.972 871.179 C 762.733 774.724 459.387 805.06 276.764 856.884 C 292.001 696.316 313.398 533.466 331.604 372.965 L 349.334 223.019 C 351.689 203.067 354.036 180.202 357.266 160.159 C 357.576 158.241 359.987 157.602 362.246 156.406 C 362.581 154.262 362.227 155.315 363.892 153.364 L 363.087 152.435 C 359.917 152.831 356.883 153.034 353.702 153.261 z"></path>
<path transform="translate(0,0)" fill="rgb(158,158,164)" d="M 1017.99 256.331 L 1026.19 257.085 L 1026.07 715.846 L 1026.04 864.558 C 1026.04 883.792 1024.86 920.057 1026.31 937.936 C 1025.08 939.54 1024.28 940.328 1022.85 941.761 C 1019.78 941.371 1019.49 939.804 1016.94 936.793 C 1018.17 930.934 1017.65 893.822 1017.66 885.417 L 1017.69 764.049 L 1017.99 256.331 z"></path>
<path transform="translate(0,0)" fill="url(#svgi_r_2l___Gradient4)" d="M 353.702 153.261 C 386.46 138.55 430.552 126.864 465.449 118.262 C 617.564 80.7638 805.674 78.7044 941.101 169.158 C 936.7 169.402 934.738 168.271 932.95 172.584 C 920.17 164.686 907.063 157.33 893.664 150.537 C 764 86.2809 602.149 92.0772 465.021 125.484 C 429.844 134.053 396.512 144.881 362.246 156.406 C 362.581 154.262 362.227 155.315 363.892 153.364 L 363.087 152.435 C 359.917 152.831 356.883 153.034 353.702 153.261 z"></path>
<path transform="translate(0,0)" fill="rgb(110,118,133)" d="M 941.101 169.158 C 966.156 187.674 988.996 207.076 1009.02 231.292 C 1012.78 235.842 1019.13 247.349 1023.5 247.6 L 1025.93 245.197 C 1026.33 251.12 1026.17 247.636 1029.76 252.039 L 1026.19 257.085 L 1017.99 256.331 C 999.651 224.796 962.425 193.589 932.95 172.584 C 934.738 168.271 936.7 169.402 941.101 169.158 z"></path>
<path transform="translate(0,0)" fill="rgb(89,53,138)" d="M 487.976 301.047 C 551.273 235.127 645.514 209.032 733.702 233.007 C 821.89 256.981 889.948 327.198 911.157 416.091 C 932.367 504.985 903.343 598.365 835.479 659.573 C 735.619 749.639 582.382 744.493 488.789 647.931 C 395.196 551.369 394.837 398.046 487.976 301.047 z"></path>
<path transform="translate(0,0)" fill="rgb(107,77,152)" d="M 487.976 301.047 C 525.987 337.154 560.558 376.84 597.622 413.9 C 602.045 418.322 605.827 422.048 609.603 427.093 C 609.647 422.555 609.344 406.3 610.661 403.038 L 629.73 403.011 C 629.731 420.852 629.39 439.91 629.838 457.652 C 636.706 462.423 656.721 484.7 664.711 492.089 L 664.59 434.547 C 664.577 426.623 664.127 410.405 665.186 403.066 C 666.646 414.674 665.75 436.558 665.847 449.198 C 666.091 480.992 665.231 513.142 665.798 544.959 L 719.779 545.079 C 720.867 548.031 823.887 650.709 835.479 659.573 C 735.619 749.639 582.382 744.493 488.789 647.931 C 395.196 551.369 394.837 398.046 487.976 301.047 z"></path>
<path transform="translate(0,0)" fill="rgb(252,252,253)" d="M 610.661 403.038 L 629.73 403.011 C 629.731 420.852 629.39 439.91 629.838 457.652 C 629.1 485.458 629.87 516.818 629.918 544.906 L 608.337 545.028 C 584.335 505.884 556.462 467.983 533.073 428.392 C 533.694 466.699 533.13 506.526 533.128 544.955 L 514.013 545.049 L 514.089 403.025 L 538.808 403.035 C 558.68 439.059 588.788 481.739 611.114 517.599 L 611.023 442.329 C 611.025 430.383 611.533 414.512 610.661 403.038 z"></path>
<path transform="translate(0,0)" fill="rgb(252,252,253)" d="M 470.382 522.463 C 474.921 520.981 479.907 522.1 483.377 525.379 C 486.847 528.659 488.246 533.574 487.022 538.189 C 485.799 542.805 482.149 546.381 477.51 547.511 C 470.706 549.168 463.81 545.151 461.893 538.416 C 459.977 531.682 463.725 524.636 470.382 522.463 z"></path>
<path transform="translate(0,0)" fill="rgb(252,252,253)" d="M 665.186 403.066 L 740.898 403.028 L 740.956 419.804 L 684.914 419.959 C 684.943 434.65 684.816 449.615 685.01 464.279 C 701.615 464.32 720.041 463.97 736.498 464.549 L 736.687 481.206 C 719.679 481.243 701.859 480.998 684.923 481.346 L 684.946 510.417 C 687.617 514.722 697.001 524.012 700.968 528.133 L 744.394 528.151 L 744.428 545.003 L 719.779 545.079 L 665.798 544.959 C 665.231 513.142 666.091 480.992 665.847 449.198 C 665.75 436.558 666.646 414.674 665.186 403.066 z"></path>
<path transform="translate(0,0)" fill="rgb(107,77,152)" d="M 684.946 510.417 C 687.617 514.722 697.001 524.012 700.968 528.133 L 684.946 528.062 L 684.946 510.417 z"></path>
<path transform="translate(0,0)" fill="rgb(252,252,253)" d="M 756.142 403.041 L 854.971 402.967 L 854.885 419.846 L 814.814 419.917 L 814.852 505.5 L 814.787 544.94 L 795.624 545.002 L 795.585 419.995 C 782.531 419.833 769.241 419.948 756.169 419.95 L 756.142 403.041 z"></path>
<path transform="translate(0,0)" fill="rgb(8,37,82)" d="M 1721.85 198.93 C 1727.98 205.968 1733.1 211.384 1739.72 217.968 L 1743.4 221.337 C 1743.48 214.859 1743.21 213.913 1740.06 208.645 C 1744.85 208.705 1752.07 208.758 1756.63 208.45 C 1812.25 204.699 1805.75 222.345 1811.82 267.995 L 1824.45 364.441 C 1839.69 476.12 1854.11 587.91 1867.7 699.801 L 1891.18 886.417 C 1893.35 903.832 1895.65 921.232 1898.07 938.616 C 1899.43 948.136 1901.38 958.534 1902.06 968.015 C 1902.99 981.036 1891.4 995.265 1877.88 995.674 C 1854.64 996.378 1831.16 996.115 1807.83 996.117 L 1671.5 996.143 L 1229.76 996.106 C 1229.72 1009.41 1229.77 1022.72 1229.91 1036.02 C 1230.03 1042.78 1231.97 1060.5 1227.64 1065.1 C 1220.8 1065.53 1187.69 1035.14 1180.8 1029.09 C 1174.44 1034.61 1136.81 1068.1 1130.95 1065.1 C 1130.04 1060.4 1130.1 1018.26 1129.97 1011.08 C 1123.37 1015.3 1117 1019.96 1110.07 1023.62 C 1047.43 1056.66 947.967 1053.37 900.043 996.078 C 835.498 995.291 769.204 996.223 704.468 996.308 L 373.072 996.125 L 244.015 996.194 C 219.908 996.221 195.993 996.393 171.747 995.918 C 156.917 995.627 141.619 983.075 142.813 967.259 C 143.523 957.839 145.659 947.284 147.048 937.822 C 149.524 920.437 151.899 903.039 154.174 885.627 C 161.576 824.862 169.379 764.148 177.583 703.486 C 190.439 602.248 203.832 501.079 217.761 399.983 C 225.027 345.331 231.673 290.728 239.715 236.098 C 243.117 212.994 251.117 208.855 274.658 208.618 C 285.095 208.513 295.699 208.671 306.182 209.202 C 304.698 213.045 304.601 217.533 304.285 221.674 L 307.102 219.28 C 308.558 215.543 319.355 203.919 322.627 200.192 C 324.5 204.819 318.073 248.173 317.113 256.651 L 302.205 387.517 L 259.695 756.336 L 248.937 846.358 C 247.589 857.897 244.684 877.507 244.216 888.615 L 244.579 888.914 C 246.656 886.24 249.925 882.744 252.236 880.117 C 253.02 882.801 253.029 884.641 254.84 886.211 C 260.025 879.788 267.862 871.637 273.581 865.033 C 287.57 861.914 301.056 857.604 315.019 854.197 C 347.672 846.114 380.62 839.274 413.791 833.693 C 477.309 823.041 541.562 817.37 605.964 816.731 C 752.246 814.262 915.49 830.509 1017.82 948.028 L 1026.89 948.038 C 1037.48 931.398 1067.96 906.078 1084.51 895.458 C 1197.45 823.003 1338.49 813.368 1468.96 818.27 C 1550.19 821.322 1627.57 831.915 1706.56 850.445 C 1724.53 854.661 1743.07 860.885 1760.97 864.331 C 1763.64 864.504 1763.84 864.428 1766.46 863.791 C 1768.72 860.399 1767.97 859.271 1768.16 854.491 C 1769.22 865.864 1775.37 869.616 1783.76 877.848 L 1785.36 879.499 C 1788.67 882.723 1790.57 884.469 1793.23 888.221 L 1793.75 888.342 C 1792.99 870.487 1789.36 845.337 1787.46 827.052 C 1783.43 785.921 1779.12 744.818 1774.52 703.748 L 1737.42 354.891 C 1732.46 308.273 1723.45 244.168 1721.85 198.93 z"></path>
<path transform="translate(0,0)" fill="rgb(190,190,191)" d="M 273.581 865.033 C 287.57 861.914 301.056 857.604 315.019 854.197 C 347.672 846.114 380.62 839.274 413.791 833.693 C 477.309 823.041 541.562 817.37 605.964 816.731 C 752.246 814.262 915.49 830.509 1017.82 948.028 C 998.736 947.942 986.143 950.05 967.811 953.638 C 927.182 923.307 859.531 914.976 809.727 913.77 C 799.604 907.07 305.334 917.139 251.939 912.848 C 247.103 912.459 239.899 913.405 234.409 910.745 C 236.059 907.11 245.971 895.553 250.071 894.505 C 259.037 892.212 270.69 893.264 280.143 893.289 L 345.228 893.357 C 355.659 893.358 375.577 893.832 385.293 892.167 C 340.292 890.172 293.295 893.847 248.122 891.866 C 245.807 891.765 245.626 890.604 244.579 888.914 C 246.656 886.24 249.925 882.744 252.236 880.117 C 253.02 882.801 253.029 884.641 254.84 886.211 C 260.025 879.788 267.862 871.637 273.581 865.033 z"></path>
<path transform="translate(0,0)" fill="rgb(110,118,133)" d="M 252.236 880.117 C 253.02 882.801 253.029 884.641 254.84 886.211 C 299.075 885.448 343.648 886.97 387.926 885.917 C 399.912 885.632 411.889 883.524 423.817 883.257 C 488.862 881.804 554.015 881.34 619.073 881.71 C 640.985 881.84 662.768 882.185 684.613 883.851 C 689.764 887.348 700.051 884.524 705.932 887.149 L 705.754 888.065 C 698.963 889.904 691.613 888.777 685.159 889.13 C 670.311 889.942 630.841 887.154 618.453 889.881 C 551.217 890.141 484.016 890.233 416.792 891.557 C 406.277 891.764 395.815 892.282 385.293 892.167 C 340.292 890.172 293.295 893.847 248.122 891.866 C 245.807 891.765 245.626 890.604 244.579 888.914 C 246.656 886.24 249.925 882.744 252.236 880.117 z"></path>
<path transform="translate(0,0)" fill="rgb(158,158,164)" d="M 684.613 883.851 C 698.121 884.239 711.585 885.519 725.075 886.385 C 741.661 887.45 757.671 886.703 773.953 890.385 C 744.963 890.738 715.825 890.082 686.724 890.018 C 668.492 889.978 635.719 891.228 618.453 889.881 C 630.841 887.154 670.311 889.942 685.159 889.13 C 691.613 888.777 698.963 889.904 705.754 888.065 L 705.932 887.149 C 700.051 884.524 689.764 887.348 684.613 883.851 z"></path>
<path transform="translate(0,0)" fill="url(#svgi_r_2l___Gradient3)" d="M 777.423 852.514 C 793.056 848.097 809.847 851.367 825.282 855.066 C 863.076 863.699 902.87 875.892 936.688 894.868 C 945.836 900.001 975.467 920.272 980.411 928.102 L 979.342 928.766 C 976.577 927.152 975.086 925.092 972.364 923.385 C 962.336 917.099 952.634 910.33 942.349 904.489 C 895.721 878.006 847.444 866.402 795.672 855.786 C 791.965 855.965 780.965 853.45 777.423 852.514 z"></path>
<path transform="translate(0,0)" fill="rgb(158,158,164)" d="M 777.423 852.514 C 793.056 848.097 809.847 851.367 825.282 855.066 C 818.67 855.008 799.588 853.084 795.672 855.786 C 791.965 855.965 780.965 853.45 777.423 852.514 z"></path>
<path transform="translate(0,0)" fill="rgb(190,190,191)" d="M 1026.89 948.038 C 1037.48 931.398 1067.96 906.078 1084.51 895.458 C 1197.45 823.003 1338.49 813.368 1468.96 818.27 C 1550.19 821.322 1627.57 831.915 1706.56 850.445 C 1724.53 854.661 1743.07 860.885 1760.97 864.331 C 1763.64 864.504 1763.84 864.428 1766.46 863.791 C 1768.72 860.399 1767.97 859.271 1768.16 854.491 C 1769.22 865.864 1775.37 869.616 1783.76 877.848 L 1785.36 879.499 C 1788.67 882.723 1790.57 884.469 1793.23 888.221 C 1792.58 889.326 1791.85 891.132 1790.95 891.266 C 1780.6 892.807 1767.11 892.264 1756.56 892.224 L 1682.86 891.946 C 1673.38 891.919 1655.55 891.305 1646.83 892.136 C 1656.8 893.319 1669.67 893.352 1679.83 893.208 C 1716.49 892.69 1753.9 894.338 1790.49 892.891 C 1797.76 900.936 1802 908.765 1811.09 913.988 L 1399.65 913.831 L 1278.66 913.792 C 1251.54 913.789 1219.84 913.014 1193.31 916.038 C 1155.79 920.316 1106.29 931.09 1075.07 953.656 C 1055.86 949.628 1046.5 948.32 1026.89 948.038 z"></path>
<path transform="translate(0,0)" fill="rgb(110,118,133)" d="M 1785.36 879.499 C 1788.67 882.723 1790.57 884.469 1793.23 888.221 C 1792.58 889.326 1791.85 891.132 1790.95 891.266 C 1780.6 892.807 1767.11 892.264 1756.56 892.224 L 1682.86 891.946 C 1673.38 891.919 1655.55 891.305 1646.83 892.136 C 1631.93 892.155 1617.1 891.764 1602.2 891.451 C 1526.21 889.858 1449.86 891.36 1373.91 889.906 C 1376.62 889.47 1379.31 888.985 1382 888.453 L 1382.09 888.178 C 1375.78 887.627 1365.63 886.777 1359.67 885.009 L 1358.99 884.801 L 1359.34 884.019 C 1373.24 883.999 1387.23 882.444 1401.05 882.23 C 1465.27 881.237 1531.55 880.421 1595.77 883.223 C 1658.8 885.973 1719.13 885.964 1782.21 885.866 L 1785.36 879.499 z"></path>
<path transform="translate(0,0)" fill="rgb(236,237,236)" d="M 1359.34 884.019 C 1348.6 882.404 1333.71 884.172 1322.86 884.709 C 1295.59 886.06 1269.4 890.174 1242.06 889.813 C 1242.88 889.441 1280.1 886.984 1284.29 886.641 C 1360.86 880.475 1437.69 878.109 1514.5 879.551 C 1521.97 879.657 1529.38 880.87 1536.8 880.987 C 1549.19 881.182 1561.37 880.126 1574.48 880.54 C 1592.35 881.105 1678.72 887.121 1690.14 881.96 C 1692.41 880.935 1694.67 879.406 1695.5 876.953 C 1696.16 874.999 1696.15 874.706 1695.18 872.929 C 1689.3 870.109 1666.67 867.196 1659.24 866.036 C 1587.59 854.849 1510.07 847.487 1437.5 846.244 C 1417.33 846.036 1397.16 845.945 1377 845.972 C 1372.92 845.961 1355.18 846.194 1352.17 845.534 C 1368.17 843.773 1395.18 844.928 1411.82 845.098 C 1466.35 845.209 1520.83 848.004 1575.08 853.472 C 1595.87 855.771 1616.63 858.293 1637.36 861.038 C 1646.03 862.271 1696.55 871.986 1701.11 871.04 C 1701.72 870.235 1705.01 866.333 1705.75 866.227 C 1723.9 863.626 1742.57 865.633 1761.08 864.775 L 1760.97 864.331 C 1763.64 864.504 1763.84 864.428 1766.46 863.791 C 1768.72 860.399 1767.97 859.271 1768.16 854.491 C 1769.22 865.864 1775.37 869.616 1783.76 877.848 L 1785.36 879.499 L 1782.21 885.866 C 1719.13 885.964 1658.8 885.973 1595.77 883.223 C 1531.55 880.421 1465.27 881.237 1401.05 882.23 C 1387.23 882.444 1373.24 883.999 1359.34 884.019 z"></path>
<path transform="translate(0,0)" fill="rgb(158,158,164)" d="M 1768.16 854.491 C 1769.22 865.864 1775.37 869.616 1783.76 877.848 L 1785.36 879.499 L 1782.21 885.866 C 1779.46 881.982 1764.92 865.853 1761.08 864.775 L 1760.97 864.331 C 1763.64 864.504 1763.84 864.428 1766.46 863.791 C 1768.72 860.399 1767.97 859.271 1768.16 854.491 z"></path>
<path transform="translate(0,0)" fill="rgb(121,127,137)" d="M 1373.91 889.906 C 1368.78 890.456 1347.28 890.143 1341.22 890.012 C 1327.01 889.706 1308.09 890.678 1294.5 889.646 L 1294.3 888.9 C 1300.03 887.786 1306 887.548 1311.83 887.431 C 1327.3 887.12 1343.6 884.279 1358.99 884.801 L 1359.67 885.009 C 1365.63 886.777 1375.78 887.627 1382.09 888.178 L 1382 888.453 C 1379.31 888.985 1376.62 889.47 1373.91 889.906 z"></path>
<path transform="translate(0,0)" fill="url(#svgi_r_2l___Gradient2)" d="M 1287.52 850.901 C 1281.15 853.059 1256.18 855.339 1245.89 857.291 C 1188.15 868.244 1129.28 885.3 1079.63 917.661 C 1074.45 921.038 1059.51 931.906 1058.62 932.09 L 1058.4 930.662 C 1066.05 922.004 1083.81 909.603 1093.71 903.571 C 1149.47 869.592 1213.1 853.794 1277.49 847.679 C 1281.4 848.279 1284.53 848.359 1287.52 850.901 z"></path>
<path transform="translate(0,0)" fill="rgb(202,202,202)" d="M 1310.7 845.988 C 1313.16 847.173 1320.35 846.269 1325.4 846.866 L 1324.71 847.036 C 1341.38 848.847 1364.92 848.031 1382.26 848.017 C 1398.45 848.003 1413.73 848.924 1429.59 849.025 L 1429.53 849.705 L 1425.79 850.724 L 1425.99 851.156 C 1417.07 854.466 1362.36 847.412 1349.55 849.255 C 1346.12 849.749 1314.95 849.335 1311.55 848.737 L 1310.7 845.988 z"></path>
<path transform="translate(0,0)" fill="rgb(158,158,164)" d="M 1277.49 847.679 C 1289.22 846.569 1299.31 845.815 1311.08 847.067 C 1307.77 847.67 1289.47 851.262 1287.52 850.901 C 1284.53 848.359 1281.4 848.279 1277.49 847.679 z"></path>
<path transform="translate(0,0)" fill="rgb(236,237,236)" d="M 1721.85 198.93 C 1727.98 205.968 1733.1 211.384 1739.72 217.968 L 1743.4 221.337 C 1751.52 304.965 1760.51 388.506 1770.38 471.946 L 1796.44 721.034 C 1801.68 767.308 1806.66 813.61 1811.39 859.938 L 1814.97 895.638 C 1815.53 900.857 1818.45 909.712 1815.45 913.824 C 1813.75 913.968 1812.8 914.137 1811.09 913.988 C 1802 908.765 1797.76 900.936 1790.49 892.891 C 1753.9 894.338 1716.49 892.69 1679.83 893.208 C 1669.67 893.352 1656.8 893.319 1646.83 892.136 C 1655.55 891.305 1673.38 891.919 1682.86 891.946 L 1756.56 892.224 C 1767.11 892.264 1780.6 892.807 1790.95 891.266 C 1791.85 891.132 1792.58 889.326 1793.23 888.221 L 1793.75 888.342 C 1792.99 870.487 1789.36 845.337 1787.46 827.052 C 1783.43 785.921 1779.12 744.818 1774.52 703.748 L 1737.42 354.891 C 1732.46 308.273 1723.45 244.168 1721.85 198.93 z"></path>
<path transform="translate(0,0)" fill="rgb(158,158,164)" d="M 1739.72 217.968 L 1743.4 221.337 C 1751.52 304.965 1760.51 388.506 1770.38 471.946 L 1796.44 721.034 C 1801.68 767.308 1806.66 813.61 1811.39 859.938 L 1814.97 895.638 C 1815.53 900.857 1818.45 909.712 1815.45 913.824 C 1813.75 913.968 1812.8 914.137 1811.09 913.988 C 1802 908.765 1797.76 900.936 1790.49 892.891 C 1753.9 894.338 1716.49 892.69 1679.83 893.208 C 1669.67 893.352 1656.8 893.319 1646.83 892.136 C 1655.55 891.305 1673.38 891.919 1682.86 891.946 L 1756.56 892.224 C 1767.11 892.264 1780.6 892.807 1790.95 891.266 C 1791.85 891.132 1792.58 889.326 1793.23 888.221 L 1793.75 888.342 C 1795.63 891.686 1810.12 905.396 1813.38 908.474 C 1809.95 859.81 1802.81 801.797 1797.31 753.022 L 1776.74 561.012 L 1750.62 319.204 C 1747.1 287.907 1744.49 247.955 1739.72 217.968 z"></path>
<path transform="translate(0,0)" fill="rgb(236,237,236)" d="M 322.627 200.192 C 324.5 204.819 318.073 248.173 317.113 256.651 L 302.205 387.517 L 259.695 756.336 L 248.937 846.358 C 247.589 857.897 244.684 877.507 244.216 888.615 C 239.047 895.482 232.56 902.336 226.743 908.759 C 228.548 884.849 232.246 858.624 235.106 834.579 L 248.957 716.987 L 288.527 376.972 C 294.579 324.676 302.074 271.67 307.102 219.28 C 308.558 215.543 319.355 203.919 322.627 200.192 z"></path>
<path transform="translate(0,0)" fill="rgb(158,158,164)" d="M 304.285 221.674 L 307.102 219.28 C 302.074 271.67 294.579 324.676 288.527 376.972 L 248.957 716.987 L 235.106 834.579 C 232.246 858.624 228.548 884.849 226.743 908.759 C 232.56 902.336 239.047 895.482 244.216 888.615 L 244.579 888.914 C 245.626 890.604 245.807 891.765 248.122 891.866 C 293.295 893.847 340.292 890.172 385.293 892.167 C 375.577 893.832 355.659 893.358 345.228 893.357 L 280.143 893.289 C 270.69 893.264 259.037 892.212 250.071 894.505 C 245.971 895.553 236.059 907.11 234.409 910.745 C 239.899 913.405 247.103 912.459 251.939 912.848 C 305.334 917.139 799.604 907.07 809.727 913.77 C 800.707 914.769 763.311 913.884 752.751 913.888 L 626.831 913.94 L 223.645 913.983 C 226.478 880.671 231.33 844.465 235.319 811.141 L 249.475 688.94 L 304.285 221.674 z"></path>
<path transform="translate(0,0)" fill="rgb(19,74,141)" d="M 263.441 219.827 C 275.039 219.978 286.998 220.29 298.567 220.211 C 298.359 226.843 298.17 229.914 297.023 236.577 C 291.117 241.795 283.954 244.319 283.097 250.192 C 280.101 270.741 277.88 292.665 275.241 313.234 L 253.869 486.549 L 216.727 784.658 C 210.548 834.259 201.052 892.992 197.563 942.112 L 747.975 942.924 L 859.242 943.117 C 874.505 943.166 910.225 942.53 924.143 945.561 C 928.899 961.081 927.331 959.949 936.167 972.111 C 938.619 973.646 942.166 976.614 945.023 976.323 C 984.463 972.315 1021.66 968.177 1061.49 971.57 C 1071.69 972.439 1096.3 978.85 1103.18 973.87 L 1103.06 975.389 C 1113.82 967.725 1117.41 975.141 1124.14 969.509 C 1125.59 966.509 1125.43 965.45 1127.95 964.195 L 1130.1 965.822 C 1130.04 975.906 1128.54 981.619 1121.64 989.61 C 1087.18 1029.52 995.217 1032.94 952.222 1011.37 C 940.841 1007.02 931.541 1000.21 922.554 992.183 C 916.635 985.442 915.208 983.182 911.996 974.772 C 860.302 975.396 807.435 974.841 755.662 974.828 L 419.717 974.633 L 247.897 974.429 L 198.951 974.622 C 188.275 974.695 169.293 977.432 162.634 968.855 C 160.986 956.234 165.005 932.448 166.706 918.881 L 175.023 853.494 C 182.868 792.781 190.014 728.722 198.882 668.556 C 199.267 655.171 203.543 628.781 205.403 614.192 L 219.851 503.457 L 240.183 353.174 C 245.31 313.02 250.272 266.781 256.431 227.048 L 263.441 219.827 z"></path>
<path transform="translate(0,0)" fill="rgb(29,51,120)" d="M 936.167 972.111 C 938.619 973.646 942.166 976.614 945.023 976.323 C 984.463 972.315 1021.66 968.177 1061.49 971.57 C 1071.69 972.439 1096.3 978.85 1103.18 973.87 L 1103.06 975.389 C 1073.54 997.094 1045.32 1001.61 1009.44 999.459 C 983.715 997.918 953.65 992.064 936.167 972.111 z"></path>
<path transform="translate(0,0)" fill="rgb(29,104,176)" d="M 198.882 668.556 C 200.088 664.605 200.966 661.329 201.911 657.307 C 202.46 670.172 197.012 689.184 196.485 702.515 C 195.607 724.711 186.49 766.731 186.05 785.972 C 185.537 808.405 160.341 956.097 165.154 968.246 L 169.328 967.056 L 170.668 968.169 L 169.136 970.969 C 173.543 974.546 218.682 972.973 227.613 972.971 L 378.061 971.995 C 522.28 971.554 666.848 973.874 811.278 972.584 L 908.938 972.224 C 915.568 972.241 911.891 976.628 916.018 976.424 L 919.5 974.108 C 923.785 979.09 928.17 983.987 932.651 988.794 C 929.285 993.118 927.931 992.346 922.554 992.183 C 916.635 985.442 915.208 983.182 911.996 974.772 C 860.302 975.396 807.435 974.841 755.662 974.828 L 419.717 974.633 L 247.897 974.429 L 198.951 974.622 C 188.275 974.695 169.293 977.432 162.634 968.855 C 160.986 956.234 165.005 932.448 166.706 918.881 L 175.023 853.494 C 182.868 792.781 190.014 728.722 198.882 668.556 z"></path>
<path transform="translate(0,0)" fill="rgb(29,104,176)" d="M 1124.14 969.509 C 1125.59 966.509 1125.43 965.45 1127.95 964.195 L 1130.1 965.822 C 1130.04 975.906 1128.54 981.619 1121.64 989.61 C 1087.18 1029.52 995.217 1032.94 952.222 1011.37 C 940.841 1007.02 931.541 1000.21 922.554 992.183 C 927.931 992.346 929.285 993.118 932.651 988.794 C 939.825 994.477 944.53 997.359 953.206 1001 C 999.069 1018.47 1047.9 1018.68 1092.98 999.218 C 1108.92 992.337 1116.12 984.46 1124.14 969.509 z"></path>
<path transform="translate(0,0)" fill="rgb(19,74,141)" d="M 1747.46 219.933 C 1759.32 219.64 1774.4 218.87 1786.07 219.24 C 1792.69 232.169 1798.46 295.501 1800.75 313.345 L 1824.16 498.606 L 1882.38 960.858 C 1882.78 964.124 1883.34 966.402 1882.23 969.585 C 1879.5 972.055 1876.86 974.704 1873.14 974.762 C 1850.05 975.126 1826.47 974.986 1803.41 974.982 L 1661.43 974.933 L 1230.23 974.951 L 1230.1 963.394 L 1229.81 942.69 L 1843.61 942.072 C 1838.85 889.057 1831.62 833.5 1825.33 780.54 L 1807.11 620.79 C 1792.68 497.182 1779.48 371.245 1763.74 247.997 C 1758.48 245.027 1753.87 241.672 1750.03 236.929 L 1747.46 219.933 z"></path>
<path transform="translate(0,0)" fill="rgb(29,104,176)" d="M 1230.1 963.394 C 1370.14 961.697 1512.58 963.217 1652.85 963.166 L 1802.55 963.125 C 1822.24 963.159 1841.92 963.067 1861.61 963.102 C 1870.14 963.117 1876.27 962.555 1882.23 969.585 C 1879.5 972.055 1876.86 974.704 1873.14 974.762 C 1850.05 975.126 1826.47 974.986 1803.41 974.982 L 1661.43 974.933 L 1230.23 974.951 L 1230.1 963.394 z"></path>
<path transform="translate(0,0)" fill="rgb(29,104,176)" d="M 1136.4 932.524 C 1162.06 925.917 1196.58 920.97 1223.06 919.003 C 1223.33 926.266 1222.94 935.067 1222.89 942.495 C 1222.88 980.091 1222.45 1018.77 1223.16 1056.34 C 1214.23 1049.95 1188.64 1028.58 1180 1021.1 C 1168.34 1030.72 1148.58 1048.26 1136.91 1056.27 L 1136.87 1001.56 C 1135.18 993.949 1136.29 943.459 1136.4 932.524 z"></path>
<path transform="translate(0,0)" fill="rgb(19,74,141)" d="M 1136.4 932.524 C 1162.06 925.917 1196.58 920.97 1223.06 919.003 C 1223.33 926.266 1222.94 935.067 1222.89 942.495 C 1198.82 941.558 1161.45 941.872 1137.24 943.387 C 1137.07 962.275 1137.61 982.964 1136.87 1001.56 C 1135.18 993.949 1136.29 943.459 1136.4 932.524 z"></path>
<path transform="translate(0,0)" fill="rgb(19,74,141)" d="M 1103.18 973.87 C 1116.59 963.088 1110.64 956.352 1119.64 945.277 C 1120.8 943.845 1127.4 944.245 1129.71 944.296 C 1130.2 950.636 1130.05 959.297 1130.1 965.822 L 1127.95 964.195 C 1125.43 965.45 1125.59 966.509 1124.14 969.509 C 1117.41 975.141 1113.82 967.725 1103.06 975.389 L 1103.18 973.87 z"></path>
<path transform="translate(0,0)" fill="url(#svgi_r_2l___Gradient1)" d="M 1094.94 177.344 C 1104.51 168.904 1125.5 156.987 1137.6 150.641 C 1226.2 104.187 1333.03 88.7782 1431.95 95.0516 C 1521.9 101.211 1610.38 121.04 1694.36 153.855 C 1699.51 161.88 1733.53 203.29 1740.06 208.645 C 1743.21 213.913 1743.48 214.859 1743.4 221.337 L 1739.72 217.968 C 1733.1 211.384 1727.98 205.968 1721.85 198.93 C 1723.45 244.168 1732.46 308.273 1737.42 354.891 L 1774.52 703.748 C 1779.12 744.818 1783.43 785.921 1787.46 827.052 C 1789.36 845.337 1792.99 870.487 1793.75 888.342 L 1793.23 888.221 C 1790.57 884.469 1788.67 882.723 1785.36 879.499 L 1783.76 877.848 C 1775.37 869.616 1769.22 865.864 1768.16 854.491 C 1767.97 859.271 1768.72 860.399 1766.46 863.791 C 1763.84 864.428 1763.64 864.504 1760.97 864.331 C 1743.07 860.885 1724.53 854.661 1706.56 850.445 C 1627.57 831.915 1550.19 821.322 1468.96 818.27 C 1338.49 813.368 1197.45 823.003 1084.51 895.458 C 1067.96 906.078 1037.48 931.398 1026.89 948.038 L 1017.82 948.028 C 915.49 830.509 752.246 814.262 605.964 816.731 C 541.562 817.37 477.309 823.041 413.791 833.693 C 380.62 839.274 347.672 846.114 315.019 854.197 C 301.056 857.604 287.57 861.914 273.581 865.033 C 267.862 871.637 260.025 879.788 254.84 886.211 C 253.029 884.641 253.02 882.801 252.236 880.117 C 249.925 882.744 246.656 886.24 244.579 888.914 L 244.216 888.615 C 244.684 877.507 247.589 857.897 248.937 846.358 L 259.695 756.336 L 302.205 387.517 L 317.113 256.651 C 318.073 248.173 324.5 204.819 322.627 200.192 C 319.355 203.919 308.558 215.543 307.102 219.28 L 304.285 221.674 C 304.601 217.533 304.698 213.045 306.182 209.202 C 315.287 202.249 348.91 155.181 353.702 153.261 C 356.883 153.034 359.917 152.831 363.087 152.435 L 363.892 153.364 C 362.227 155.315 362.581 154.262 362.246 156.406 C 359.987 157.602 357.576 158.241 357.266 160.159 C 354.036 180.202 351.689 203.067 349.334 223.019 L 331.604 372.965 C 313.398 533.466 292.001 696.316 276.764 856.884 C 459.387 805.06 762.733 774.724 934.972 871.179 C 965.236 888.127 994.761 909.908 1016.94 936.793 C 1019.49 939.804 1019.78 941.371 1022.85 941.761 C 1024.28 940.328 1025.08 939.54 1026.31 937.936 C 1033.92 928.483 1041.55 921.352 1050.25 913.027 C 1065.26 899.937 1081.5 888.33 1098.75 878.369 C 1240.32 796.035 1454.31 801.738 1610.51 824.407 C 1659.69 831.544 1712.98 844.617 1761.05 857.387 C 1757.29 810.717 1750.85 762.023 1746.22 715.046 L 1687.9 158.511 C 1632.98 138.734 1584.43 124.236 1526.84 113.909 C 1416.63 94.1469 1302.62 95.3616 1196.2 132.912 C 1175.71 140.139 1141.66 154.444 1124.21 166.469 C 1114.36 171.563 1107.26 177.319 1098.29 182.531 L 1098.02 181.086 C 1095.1 181.929 1088.23 187.508 1085.4 189.62 C 1088.99 185.762 1093.91 182.382 1094.94 177.344 z"></path>
<path transform="translate(0,0)" fill="rgb(252,252,253)" d="M 1696.5 169.018 L 1712.04 187.485 L 1721.85 198.93 C 1723.45 244.168 1732.46 308.273 1737.42 354.891 L 1774.52 703.748 C 1779.12 744.818 1783.43 785.921 1787.46 827.052 C 1789.36 845.337 1792.99 870.487 1793.75 888.342 L 1793.23 888.221 C 1790.57 884.469 1788.67 882.723 1785.36 879.499 L 1783.76 877.848 C 1775.37 869.616 1769.22 865.864 1768.16 854.491 C 1767.44 838.574 1764.06 813.928 1762.31 797.538 L 1751.68 694.682 L 1717.79 374.354 C 1710.6 308.714 1701.4 234.622 1696.5 169.018 z"></path>
<path transform="translate(0,0)" fill="rgb(202,202,202)" d="M 1712.04 187.485 L 1721.85 198.93 C 1723.45 244.168 1732.46 308.273 1737.42 354.891 L 1774.52 703.748 C 1779.12 744.818 1783.43 785.921 1787.46 827.052 C 1789.36 845.337 1792.99 870.487 1793.75 888.342 L 1793.23 888.221 C 1790.57 884.469 1788.67 882.723 1785.36 879.499 L 1783.76 877.848 C 1786.35 872.314 1715.35 254.784 1712.04 187.485 z"></path>
<path transform="translate(0,0)" fill="rgb(236,237,236)" d="M 333.564 188.048 C 336.609 183.188 344.075 174.284 348.084 170.088 C 343.993 221.428 335.211 281.127 329.12 333.195 L 288.491 682.423 L 275.926 795.976 C 274.356 810.147 270.077 841.204 269.847 854.503 C 269.931 859.45 268.925 862.632 273.581 865.033 C 267.862 871.637 260.025 879.788 254.84 886.211 C 253.029 884.641 253.02 882.801 252.236 880.117 C 249.925 882.744 246.656 886.24 244.579 888.914 L 244.216 888.615 C 244.684 877.507 247.589 857.897 248.937 846.358 L 259.695 756.336 L 302.205 387.517 L 317.113 256.651 C 318.073 248.173 324.5 204.819 322.627 200.192 C 325.83 195.938 329.869 191.922 333.564 188.048 z"></path>
<path transform="translate(0,0)" fill="rgb(202,202,202)" d="M 322.627 200.192 C 325.83 195.938 329.869 191.922 333.564 188.048 L 269.074 743.288 C 265.552 774.589 261.787 805.862 257.778 837.105 C 256.953 843.75 252.822 873.786 253.341 878.687 L 252.236 880.117 C 249.925 882.744 246.656 886.24 244.579 888.914 L 244.216 888.615 C 244.684 877.507 247.589 857.897 248.937 846.358 L 259.695 756.336 L 302.205 387.517 L 317.113 256.651 C 318.073 248.173 324.5 204.819 322.627 200.192 z"></path>
<path transform="translate(0,0)" fill="rgb(158,158,164)" d="M 253.341 878.687 C 261.278 870.567 268.867 865.319 269.847 854.503 C 269.931 859.45 268.925 862.632 273.581 865.033 C 267.862 871.637 260.025 879.788 254.84 886.211 C 253.029 884.641 253.02 882.801 252.236 880.117 L 253.341 878.687 z"></path>
<path transform="translate(0,0)" fill="rgb(236,237,236)" d="M 1124.21 166.469 C 1117.1 175.552 1108.21 184.727 1100.72 193.732 C 1080.9 217.554 1066.54 241.497 1058.7 271.541 C 1053.95 289.644 1050.96 308.161 1049.75 326.838 C 1047.57 364.423 1049.07 414.656 1049.11 453.404 L 1049.24 682.568 L 1049.43 837.839 C 1049.46 851.466 1049.44 865.169 1049.52 878.789 C 1049.58 888.698 1048.83 903.389 1050.25 913.027 C 1041.55 921.352 1033.92 928.483 1026.31 937.936 C 1024.86 920.057 1026.04 883.792 1026.04 864.558 L 1026.07 715.846 L 1026.19 257.085 L 1029.76 252.039 C 1026.17 247.636 1026.33 251.12 1025.93 245.197 C 1040.37 223.102 1072.83 191.783 1094.94 177.344 C 1093.91 182.382 1088.99 185.762 1085.4 189.62 C 1088.23 187.508 1095.1 181.929 1098.02 181.086 L 1098.29 182.531 C 1107.26 177.319 1114.36 171.563 1124.21 166.469 z"></path>
<path transform="translate(0,0)" fill="rgb(121,127,137)" d="M 1094.94 177.344 C 1093.91 182.382 1088.99 185.762 1085.4 189.62 C 1088.23 187.508 1095.1 181.929 1098.02 181.086 L 1098.29 182.531 C 1067.85 206.422 1053.67 220.347 1029.76 252.039 C 1026.17 247.636 1026.33 251.12 1025.93 245.197 C 1040.37 223.102 1072.83 191.783 1094.94 177.344 z"></path>
<path transform="translate(0,0)" fill="rgb(29,51,120)" d="M 1380.2 300.979 C 1484.84 299.802 1570.55 383.817 1571.47 488.46 C 1572.38 593.104 1488.15 678.603 1383.51 679.254 C 1279.23 679.903 1194.1 596.037 1193.19 491.764 C 1192.28 387.492 1275.93 302.152 1380.2 300.979 z"></path>
<path transform="translate(0,0)" fill="rgb(252,252,253)" d="M 1451.28 357.981 C 1481.3 353.239 1509.48 373.721 1514.23 403.735 C 1518.98 433.75 1498.51 461.937 1468.5 466.703 C 1438.47 471.471 1410.26 450.986 1405.51 420.955 C 1400.75 390.924 1421.25 362.725 1451.28 357.981 z"></path>
<path transform="translate(0,0)" fill="rgb(252,252,253)" d="M 1465.97 492.429 C 1501.67 488.258 1509.52 501.184 1509.19 533.408 C 1509.05 542.037 1508.97 550.668 1508.94 559.298 C 1509.02 581.43 1514.92 567.727 1519.73 577.849 C 1519.94 580.976 1519.34 581.628 1517.72 584.381 C 1506.21 589.305 1500.58 585.857 1494.36 576.272 C 1488.35 576.276 1477.52 587.984 1464.69 587.158 C 1454.19 586.482 1448.63 584.012 1441.01 576.514 C 1436.11 569.344 1433.37 556.92 1437.84 548.911 C 1448.55 528.978 1471.48 534.84 1487.48 529.828 C 1508.51 523.241 1481.12 495.352 1464.7 506.487 C 1457.43 511.417 1457.14 511.227 1454.45 520.185 C 1450.12 520.204 1445.79 520.089 1441.47 519.84 C 1438.27 517.046 1438.28 513.179 1440.6 509.773 C 1447.6 499.506 1454.48 495.512 1465.97 492.429 z"></path>
<path transform="translate(0,0)" fill="rgb(29,51,120)" d="M 1492.29 540.209 L 1493.3 540.217 C 1493.43 540.421 1493.56 540.625 1493.7 540.829 C 1499.04 568.619 1476.74 578.428 1457.49 571.164 C 1455 569.029 1452.23 565.695 1451.38 562.523 C 1446.45 544.198 1481.21 543.203 1492.29 540.209 z"></path>
<path transform="translate(0,0)" fill="rgb(252,252,253)" d="M 1401.98 495.287 L 1416.38 495.198 L 1416.56 521.5 L 1416.41 583.135 L 1402.96 583.095 C 1402.94 579.158 1402.77 576.075 1402.46 572.147 C 1401.66 573.046 1400.85 573.938 1400.03 574.822 C 1393.85 581.492 1385.87 587.173 1376.41 586.933 C 1341.63 586.049 1344.4 564.257 1344.71 537.283 C 1344.87 523.634 1344.91 508.9 1345.02 495.229 L 1360.02 495.336 C 1360.38 510.605 1356 559.202 1365.22 569.052 C 1368.25 572.295 1372.29 573.793 1376.68 573.857 C 1382.92 573.949 1389.43 571.792 1393.89 567.344 C 1406.37 554.913 1401.81 513.184 1401.98 495.287 z"></path>
<path transform="translate(0,0)" fill="rgb(252,252,253)" d="M 1254.97 464.193 L 1271.64 464.158 L 1271.69 568.19 L 1330.78 568.293 L 1330.75 583.096 L 1254.87 583.09 L 1254.97 464.193 z"></path>
<path transform="translate(0,0)" fill="rgb(29,51,120)" d="M 1557.75 227.625 C 1589.95 223.771 1619.17 246.781 1622.97 278.99 C 1626.77 311.198 1603.71 340.379 1571.5 344.128 C 1539.36 347.869 1510.26 324.875 1506.46 292.74 C 1502.67 260.606 1525.62 231.47 1557.75 227.625 z"></path>
<path transform="translate(0,0)" fill="rgb(29,51,120)" d="M 1161.46 381.457 L 1164 383.548 C 1164.56 387.304 1152.87 410.951 1150.62 416.323 C 1148.77 415.355 1148.86 415.457 1147.53 413.859 C 1147.17 406.572 1157.68 388.405 1161.46 381.457 z"></path>
<path transform="translate(0,0)" fill="rgb(29,51,120)" d="M 1188.57 339.516 L 1191.68 341.476 C 1192.25 345.989 1181.16 359.245 1177.75 364.018 C 1174.84 363.59 1176.02 364.247 1174.14 361.937 C 1174.6 356.31 1184.64 344.578 1188.57 339.516 z"></path>
<path transform="translate(0,0)" fill="rgb(29,51,120)" d="M 1457.99 254.444 C 1463.83 255.468 1477.3 259.52 1482.28 263.107 C 1484.33 264.587 1483.78 265.771 1483.92 268.538 C 1477.47 267.429 1465.28 263.271 1459.39 259.776 C 1457.61 258.718 1458.09 256.771 1457.99 254.444 z"></path>
<path transform="translate(0,0)" fill="rgb(29,51,120)" d="M 1413.68 729.436 C 1416.29 728.862 1418.62 728.581 1420.38 730.701 C 1418.93 736.511 1405.17 736.211 1400.22 736.431 L 1396.02 736.443 C 1393.67 734.333 1393.99 735.239 1393.43 732.615 C 1395.54 730.13 1409.98 729.709 1413.68 729.436 z"></path>
<path transform="translate(0,0)" fill="rgb(29,51,120)" d="M 1465.65 716.036 L 1468.34 716.957 L 1468.62 719.042 C 1465.28 723.43 1451.09 727.095 1445.47 728.849 C 1443.39 728.448 1444.4 728.782 1442.48 727.179 L 1442.54 725.674 C 1445.07 722.157 1460.55 717.751 1465.65 716.036 z"></path>
<path transform="translate(0,0)" fill="rgb(29,51,120)" d="M 1373.48 243.464 L 1374.92 243.517 L 1376.44 245.675 L 1375.65 247.811 C 1371.69 249.811 1358.03 250.77 1352.87 251.306 C 1351.97 251.034 1350.75 250.121 1349.9 249.563 L 1350.41 247.364 C 1354.61 243.769 1367.74 243.724 1373.48 243.464 z"></path>
<path transform="translate(0,0)" fill="rgb(29,51,120)" d="M 1547.87 664.8 C 1549.26 665.764 1549.61 666.655 1550.45 668.112 C 1549.3 673.365 1537.07 681.549 1532.26 685.213 L 1529.8 682.161 C 1530.79 677.139 1542.86 668.994 1547.87 664.8 z"></path>
<path transform="translate(0,0)" fill="rgb(29,51,120)" d="M 1509.09 694.043 C 1510.11 695.023 1510.59 696.113 1511.32 697.358 C 1509.83 702.251 1495.5 708.482 1490.48 711.054 C 1488.89 710.474 1488.59 709.58 1487.69 708.117 C 1489.27 704.006 1503.92 697.035 1509.09 694.043 z"></path>
<path transform="translate(0,0)" fill="rgb(29,51,120)" d="M 1345.67 728.682 C 1352.59 729.146 1362.68 728.783 1369.02 731.313 C 1371.35 732.239 1371.2 733.894 1371.96 736.56 C 1365.44 736.384 1352.7 736.777 1347.26 733.628 C 1345.87 732.818 1345.99 730.7 1345.67 728.682 z"></path>
<path transform="translate(0,0)" fill="rgb(29,51,120)" d="M 1190.33 639.35 C 1194.07 640.9 1205.56 654.728 1207.15 658.636 L 1205.37 661.581 C 1200.58 659.739 1188.84 647.425 1188.02 642.269 L 1190.33 639.35 z"></path>
<path transform="translate(0,0)" fill="rgb(29,51,120)" d="M 1255.73 279.898 C 1256.84 280.977 1256.87 281.489 1257.52 282.957 C 1255.51 286.909 1241.48 296.283 1237.29 299.279 C 1235.58 297.823 1235.71 297.642 1235.12 295.531 C 1237.21 290.006 1250.15 283.261 1255.73 279.898 z"></path>
<path transform="translate(0,0)" fill="rgb(29,51,120)" d="M 1258.87 697.844 C 1265.18 701.039 1275.42 704.764 1280.75 709.401 C 1281.86 710.363 1281.27 711.908 1281.09 713.864 C 1276.22 714.012 1261.46 706.571 1258.38 702.398 C 1257.61 701.352 1258.55 699.138 1258.87 697.844 z"></path>
<path transform="translate(0,0)" fill="rgb(29,51,120)" d="M 1592.95 359.548 C 1596.45 362.858 1603.83 376.246 1603.39 381.24 L 1600.35 383.651 C 1597.18 378.563 1589.77 367.802 1589.8 362.143 L 1592.95 359.548 z"></path>
<path transform="translate(0,0)" fill="rgb(29,51,120)" d="M 1301.43 717.807 C 1305.82 717.976 1319.13 721.979 1323.18 724.218 C 1325.59 725.549 1325.19 726.308 1325.91 729.081 C 1321 729.352 1306.8 726.176 1302.84 722.766 C 1301.44 721.553 1301.71 720.013 1301.43 717.807 z"></path>
<path transform="translate(0,0)" fill="rgb(29,51,120)" d="M 1611.59 401.252 C 1616.94 403.375 1619.92 417.241 1620.8 422.381 C 1621.14 424.387 1620.02 424.858 1618.7 426.405 C 1614.31 423.239 1610.53 409.412 1609.65 403.923 C 1609.52 403.115 1610.97 401.934 1611.59 401.252 z"></path>
<path transform="translate(0,0)" fill="rgb(29,51,120)" d="M 1326.73 250.209 C 1328.81 252.426 1328.35 251.335 1328.53 254.282 C 1325.08 257.236 1312.36 260.389 1307.25 261.87 C 1306.25 260.33 1306.28 259.765 1305.78 257.975 C 1308.67 253.51 1321.22 251.528 1326.73 250.209 z"></path>
<path transform="translate(0,0)" fill="rgb(29,51,120)" d="M 1221.97 671.788 C 1225.85 673.868 1238.53 683.411 1240.77 687.059 L 1239.73 690.612 C 1234.51 688.918 1223.35 681.066 1220.57 676.058 C 1219.87 674.783 1221.28 673.111 1221.97 671.788 z"></path>
<path transform="translate(0,0)" fill="rgb(29,51,120)" d="M 1623.82 518.274 L 1627.41 519.442 C 1630.3 524.548 1626.05 537.803 1624.6 543.739 C 1621.17 542.882 1621.93 543.625 1620.31 541.305 C 1620.23 534.819 1622.58 525.089 1623.82 518.274 z"></path>
<path transform="translate(0,0)" fill="rgb(29,51,120)" d="M 1597.81 599.516 C 1599.46 600.406 1599.45 600.679 1600.72 602.094 C 1600.94 607.834 1593.21 618.267 1589.89 623.277 C 1587.23 621.352 1587.83 622.332 1586.79 619.537 C 1588.46 613.614 1594.37 605.065 1597.81 599.516 z"></path>
<path transform="translate(0,0)" fill="rgb(29,51,120)" d="M 1165.94 604.295 C 1170.14 606.006 1177.76 619.358 1178.48 623.759 L 1176.42 626.565 C 1171.95 624.286 1164.88 612.09 1163.82 607.219 L 1165.94 604.295 z"></path>
<path transform="translate(0,0)" fill="rgb(29,51,120)" d="M 1141.65 428.92 L 1144.88 430.52 C 1146.84 435.615 1141.86 448.532 1140.13 454.05 L 1137.11 452.883 C 1134.67 447.957 1139.78 434.562 1141.65 428.92 z"></path>
<path transform="translate(0,0)" fill="rgb(29,51,120)" d="M 1285.43 263.883 C 1287.83 263.615 1288.03 264.645 1289.27 266.259 L 1288.63 268.194 C 1284.77 271.496 1277.12 274.515 1272.27 276.704 C 1270.97 277.204 1270.06 276.902 1268.67 276.688 L 1268.48 274.785 C 1270.22 270.321 1280.94 265.971 1285.43 263.883 z"></path>
<path transform="translate(0,0)" fill="rgb(29,51,120)" d="M 1132.43 480.249 C 1135.72 480.956 1134.99 480.312 1137.06 482.375 C 1138.55 488.525 1137.78 497.13 1137.62 503.722 L 1133.55 502.989 C 1130.17 498.734 1132.02 485.871 1132.43 480.249 z"></path>
<path transform="translate(0,0)" fill="rgb(29,51,120)" d="M 1613.36 562.186 L 1616.78 563.493 C 1618.66 568.461 1612.66 579.856 1610.41 585.037 C 1607.31 583.901 1607.9 584.652 1606.56 582.356 C 1607.05 576.532 1611.06 567.928 1613.36 562.186 z"></path>
<path transform="translate(0,0)" fill="rgb(29,51,120)" d="M 1148.81 566.579 C 1152.5 569.113 1156.24 579.764 1157.14 584.453 C 1157.53 586.507 1156.49 587 1155.24 588.706 L 1152.65 587.003 C 1149.53 581.176 1143.34 571.624 1148.81 566.579 z"></path>
<path transform="translate(0,0)" fill="rgb(29,51,120)" d="M 1416.18 245.185 C 1421.16 245.78 1434.69 246.333 1434.96 252.111 L 1433.27 253.596 C 1427.92 252.823 1418.19 252.108 1414.02 250.001 L 1413.78 248.117 L 1416.18 245.185 z"></path>
<path transform="translate(0,0)" fill="rgb(29,51,120)" d="M 1135.45 528.157 L 1139.42 528.953 C 1142.81 533.294 1144.14 544.271 1145.11 549.997 L 1141.06 549.716 C 1136.7 545.76 1136.16 534.087 1135.45 528.157 z"></path>
<path transform="translate(0,0)" fill="rgb(29,51,120)" d="M 1626.99 478.375 L 1629.92 479.62 C 1632.43 484.714 1631.08 496.759 1630.68 502.767 C 1627.12 501.935 1627.93 502.691 1626.21 500.317 C 1625.15 494.037 1625.15 484.516 1626.99 478.375 z"></path>
<path transform="translate(0,0)" fill="rgb(29,51,120)" d="M 1218.04 307.82 L 1220.44 310.014 L 1220.47 312.247 C 1217.83 316.818 1211.69 321.943 1207.65 325.685 C 1206.65 324.514 1204.99 323.112 1205.13 321.966 C 1205.62 317.748 1214.9 310.577 1218.04 307.82 z"></path>
<path transform="translate(0,0)" fill="rgb(29,51,120)" d="M 1574.47 635.666 L 1576.65 638.297 C 1576.37 644.499 1569.24 650.436 1564.69 655.243 C 1562.52 652.6 1562.88 653.757 1562.55 650.644 C 1565.01 645.399 1570.45 640.064 1574.47 635.666 z"></path>
<path transform="translate(0,0)" fill="rgb(29,51,120)" d="M 1623.74 444.293 C 1628.92 447.875 1630.93 460.352 1627.49 465.79 C 1622.18 464.096 1622.59 455.452 1621.84 450.662 C 1621.3 447.207 1621.57 446.714 1623.74 444.293 z"></path>
</svg>